# xmcd
#
# Track frame offsets: 
#        150
#        19902
#        36766
#        56301
#        83259
#        111224
#        119749
#        144832
#        173398
#        191933
#        208170
#
# Disc length: 3258 seconds
#
# Revision: 0
# Processed by: cddbd v1.5.2PL0 Copyright (c) Steve Scherf et al.
# Submitted via: ExactAudioCopyFreeDBPlugin 1.0
#
DISCID=8e0cb80b
DTITLE=Bethlehem and Sad Patrick - Did You Ever Do?
DYEAR=2015
DGENRE=Rhythm and Blues
TTITLE0=Did You Ever Do
TTITLE1=When I Miss You
TTITLE2=The Moment
TTITLE3=Fix Me
TTITLE4=Jar and Pin
TTITLE5=You Always Kiss Me
TTITLE6=Love Me Like
TTITLE7=How Soon
TTITLE8=Teach Me
TTITLE9=Break Your Heart
TTITLE10=The Last Star
EXTD=
EXTT0=
EXTT1=
EXTT2=
EXTT3=
EXTT4=
EXTT5=
EXTT6=
EXTT7=
EXTT8=
EXTT9=
EXTT10=
PLAYORDER=
